# xmcd CD database file
#
# Track frame offsets:
#	150
#	18884
#	45178
#	65704
#	80168
#	101126
#	119295
#
# Disc length: 1847 seconds
#
# Revision: 0
# Processed by: cddbd v1.4PL0 Copyright (c) Steve Scherf et al.
# Submitted via: CDex 1.50Beta5
#
DISCID=55073507
DTITLE=A Million Evil Pennies - I Am Large
DYEAR=1900
DGENRE=Salsa
TTITLE0=Mr. Rogers
TTITLE1=Satelite
TTITLE2=Wide Awake
TTITLE3=Where's Your Head?
TTITLE4=World
TTITLE5=Murray
TTITLE6=Kite
EXTD=
EXTT0=
EXTT1=
EXTT2=
EXTT3=
EXTT4=
EXTT5=
EXTT6=
PLAYORDER=
